<svg width="621" height="108" viewBox="0 0 621 108" fill="none" xmlns="http://www.w3.org/2000/svg">
<g filter="url(#filter0_i_36_2)">
<path d="M93.6566 59.0049V80.8038L53.7924 93.4883L13.9281 80.8038V59.0049L53.7924 46.3214L93.6566 59.0049Z" stroke="#E9F355" stroke-width="8.64522"/>
</g>
<g filter="url(#filter1_i_36_2)">
<path d="M93.6566 26.8256V48.6244L53.7924 61.309L13.9281 48.6244V26.8256L53.7924 14.142L93.6566 26.8256Z" stroke="#E9F355" stroke-opacity="0.5" stroke-width="8.64522"/>
</g>
<path d="M166.918 38.6185H158.591C158.397 29.5813 152.62 25.0628 141.259 25.0628C136.611 25.0628 132.867 26.1279 130.027 28.2581C127.187 30.3237 125.767 33.0671 125.767 36.4883C125.767 39.0703 126.606 41.136 128.284 42.6852C130.027 44.1699 132.997 45.4609 137.192 46.5583L153.653 50.8186C164.11 53.5943 169.339 59.4039 169.339 68.2474C169.339 74.6379 166.789 79.8343 161.689 83.8365C157.171 87.3222 150.684 89.0651 142.227 89.0651C131.512 89.0651 123.733 85.8375 118.892 79.3824C116.31 75.8967 114.955 71.2167 114.825 65.3426H123.153V65.5363C123.153 70.5712 124.863 74.4766 128.284 77.2523C131.77 79.9634 136.611 81.319 142.808 81.319C148.489 81.319 152.717 80.383 155.493 78.511C158.785 76.2517 160.431 73.0887 160.431 69.022C160.431 63.8579 156.203 60.2108 147.746 58.0806L130.511 53.6266C121.474 51.3028 116.956 45.9773 116.956 37.6502C116.956 31.066 119.441 25.9665 124.411 22.3516C128.736 19.1886 134.449 17.6071 141.55 17.6071C151.62 17.6071 158.817 20.5442 163.142 26.4183C165.659 29.8396 166.918 33.5512 166.918 37.5534C166.918 37.747 166.918 38.1021 166.918 38.6185ZM199.866 38.2312V44.6217H189.699V77.7364C189.699 78.8983 190.086 79.8988 190.861 80.738C191.7 81.5126 192.765 81.8999 194.056 81.8999C195.282 81.8999 197.154 81.6095 199.672 81.0285L200.543 88C196.541 88.7101 193.507 89.0651 191.442 89.0651C185.051 89.0651 181.856 86.4508 181.856 81.2221V44.6217H175.078V38.2312H181.856V28.0644L189.699 24.4818V38.2312H199.866ZM228.611 37.1661C236.099 37.1661 241.812 39.7804 245.749 45.009C249.235 49.5276 250.978 55.66 250.978 63.4061C250.978 72.0559 248.719 78.6401 244.2 83.1587C240.327 87.0963 235.098 89.0651 228.514 89.0651C220.897 89.0651 215.088 86.5153 211.085 81.4158C207.6 76.9618 205.857 70.9585 205.857 63.4061C205.857 54.6271 208.148 47.8816 212.731 43.1693C216.669 39.1672 221.962 37.1661 228.611 37.1661ZM228.611 44.4281C224.092 44.4281 220.542 46.1387 217.96 49.5599C215.378 52.9165 214.087 57.5319 214.087 63.4061C214.087 69.5384 215.539 74.2184 218.444 77.4459C220.962 80.2862 224.318 81.7063 228.514 81.7063C232.968 81.7063 236.422 80.0925 238.875 76.865C241.392 73.6374 242.651 69.1511 242.651 63.4061C242.651 57.0801 241.231 52.2387 238.39 48.8821C235.937 45.9127 232.678 44.4281 228.611 44.4281ZM300.059 54.8853H292.119C291.151 47.9138 287.213 44.4281 280.306 44.4281C275.982 44.4281 272.593 46.1387 270.14 49.5599C267.687 52.9811 266.46 57.7256 266.46 63.7934C266.46 69.7966 267.913 74.3797 270.817 77.5427C273.27 80.3184 276.563 81.7063 280.694 81.7063C287.343 81.7063 291.312 78.0914 292.603 70.8617H300.64C300.124 77.0586 297.897 81.7386 293.959 84.9016C290.538 87.6772 286.052 89.0651 280.5 89.0651C273.206 89.0651 267.525 86.4831 263.459 81.319C259.973 76.865 258.23 71.0231 258.23 63.7934C258.23 55.1435 260.522 48.3657 265.105 43.4598C269.042 39.264 274.142 37.1661 280.403 37.1661C287.633 37.1661 293.055 39.5868 296.67 44.4281C298.542 46.9456 299.672 50.4313 300.059 54.8853ZM316.25 18.6722V59.3394L337.358 38.2312H347.621L330.289 55.3695L350.623 88H340.843L323.996 60.9854L316.25 68.5379V88H308.407V18.6722H316.25Z" fill="#FAFAFA"/>
<path d="M407.093 38.6185H398.766C398.572 29.5813 392.795 25.0628 381.434 25.0628C376.786 25.0628 373.043 26.1279 370.202 28.2581C367.362 30.3237 365.942 33.0671 365.942 36.4883C365.942 39.0703 366.781 41.136 368.459 42.6852C370.202 44.1699 373.172 45.4609 377.367 46.5583L393.828 50.8186C404.285 53.5943 409.514 59.4039 409.514 68.2474C409.514 74.6379 406.964 79.8343 401.865 83.8365C397.346 87.3222 390.859 89.0651 382.402 89.0651C371.687 89.0651 363.909 85.8375 359.067 79.3824C356.485 75.8967 355.13 71.2167 355.001 65.3426H363.328V65.5363C363.328 70.5712 365.038 74.4766 368.459 77.2523C371.945 79.9634 376.786 81.319 382.983 81.319C388.664 81.319 392.892 80.383 395.668 78.511C398.96 76.2517 400.606 73.0887 400.606 69.022C400.606 63.8579 396.378 60.2108 387.922 58.0806L370.686 53.6266C361.649 51.3028 357.131 45.9773 357.131 37.6502C357.131 31.066 359.616 25.9665 364.586 22.3516C368.911 19.1886 374.624 17.6071 381.725 17.6071C391.795 17.6071 398.992 20.5442 403.317 26.4183C405.834 29.8396 407.093 33.5512 407.093 37.5534C407.093 37.747 407.093 38.1021 407.093 38.6185ZM462.601 65.4394H425.904C425.969 69.6998 426.872 73.0887 428.615 75.6062C431.391 79.6729 435.393 81.7063 440.622 81.7063C447.077 81.7063 451.434 78.6401 453.693 72.5078H461.633C460.6 77.7364 458.212 81.8031 454.468 84.7079C450.724 87.6127 446.012 89.0651 440.331 89.0651C432.779 89.0651 427.001 86.4831 422.999 81.319C419.449 76.8004 417.674 70.8294 417.674 63.4061C417.674 54.8208 419.998 48.1398 424.645 43.363C428.712 39.2317 433.973 37.1661 440.428 37.1661C445.14 37.1661 449.271 38.2957 452.822 40.555C456.437 42.8143 459.019 45.9127 460.568 49.8504C461.923 53.207 462.601 58.3065 462.601 65.1489V65.4394ZM454.081 58.9521C454.081 54.6271 452.789 51.1414 450.207 48.4948C447.69 45.7836 444.43 44.4281 440.428 44.4281C436.361 44.4281 433.037 45.7514 430.455 48.398C427.937 50.98 426.517 54.498 426.194 58.9521H454.081ZM473.436 38.2312H480.795V46.6551C484.797 40.3291 490.284 37.1661 497.255 37.1661C502.097 37.1661 505.937 38.3926 508.778 40.8455C511.618 43.2339 513.038 46.4614 513.038 50.5281V88H505.195V53.7234C505.195 50.7541 504.259 48.398 502.387 46.6551C500.58 44.9122 498.094 44.0408 494.931 44.0408C490.8 44.0408 487.508 45.5577 485.055 48.5916C482.602 51.6255 481.376 55.66 481.376 60.6949V88H473.436V38.2312ZM561.635 51.8837H552.921C552.662 46.9133 549.338 44.4281 542.948 44.4281C539.655 44.4281 537.041 45.0736 535.105 46.3646C533.233 47.5911 532.297 49.2694 532.297 51.3996C532.297 54.6271 535.363 56.951 541.495 58.3711L549.144 60.114C554.115 61.2759 557.697 62.9219 559.892 65.0521C562.087 67.1823 563.184 70.0871 563.184 73.7665C563.184 78.4787 561.345 82.2227 557.665 84.9984C553.986 87.7095 549.015 89.0651 542.754 89.0651C535.911 89.0651 530.715 87.4513 527.165 84.2238C524.195 81.5772 522.614 78.0591 522.42 73.6697H531.425C531.942 75.929 532.652 77.575 533.555 78.6078C535.298 80.6735 538.558 81.7063 543.335 81.7063C546.885 81.7063 549.693 81.0608 551.759 79.7697C553.889 78.4142 554.954 76.639 554.954 74.4443C554.954 71.1522 552.404 68.8929 547.305 67.6664L539.849 65.9236C534.169 64.568 530.199 62.9542 527.939 61.0822C525.357 58.9521 524.066 55.8859 524.066 51.8837C524.066 47.3651 525.777 43.7826 529.198 41.136C532.684 38.4894 537.332 37.1661 543.141 37.1661C549.209 37.1661 553.921 38.683 557.278 41.7169C560.183 44.3635 561.635 47.7525 561.635 51.8837ZM615.878 65.4394H579.181C579.246 69.6998 580.149 73.0887 581.892 75.6062C584.668 79.6729 588.67 81.7063 593.899 81.7063C600.354 81.7063 604.711 78.6401 606.97 72.5078H614.91C613.877 77.7364 611.489 81.8031 607.745 84.7079C604.001 87.6127 599.289 89.0651 593.608 89.0651C586.056 89.0651 580.278 86.4831 576.276 81.319C572.726 76.8004 570.951 70.8294 570.951 63.4061C570.951 54.8208 573.275 48.1398 577.922 43.363C581.989 39.2317 587.25 37.1661 593.705 37.1661C598.417 37.1661 602.549 38.2957 606.099 40.555C609.714 42.8143 612.296 45.9127 613.845 49.8504C615.201 53.207 615.878 58.3065 615.878 65.1489V65.4394ZM607.358 58.9521C607.358 54.6271 606.067 51.1414 603.485 48.4948C600.967 45.7836 597.707 44.4281 593.705 44.4281C589.638 44.4281 586.314 45.7514 583.732 48.398C581.214 50.98 579.794 54.498 579.472 58.9521H607.358Z" fill="#E9F355"/>
<defs>
<filter id="filter0_i_36_2" x="9.60583" y="41.7852" width="126.797" height="94.6633" filterUnits="userSpaceOnUse" color-interpolation-filters="sRGB">
<feFlood flood-opacity="0" result="BackgroundImageFix"/>
<feBlend mode="normal" in="SourceGraphic" in2="BackgroundImageFix" result="shape"/>
<feColorMatrix in="SourceAlpha" type="matrix" values="0 0 0 0 0 0 0 0 0 0 0 0 0 0 0 0 0 0 127 0" result="hardAlpha"/>
<feOffset dx="76.8464" dy="76.8464"/>
<feGaussianBlur stdDeviation="19.2116"/>
<feComposite in2="hardAlpha" operator="arithmetic" k2="-1" k3="1"/>
<feColorMatrix type="matrix" values="0 0 0 0 0.913725 0 0 0 0 0.952941 0 0 0 0 0.333333 0 0 0 0.1 0"/>
<feBlend mode="normal" in2="shape" result="effect1_innerShadow_36_2"/>
</filter>
<filter id="filter1_i_36_2" x="9.60583" y="9.60583" width="126.797" height="94.6633" filterUnits="userSpaceOnUse" color-interpolation-filters="sRGB">
<feFlood flood-opacity="0" result="BackgroundImageFix"/>
<feBlend mode="normal" in="SourceGraphic" in2="BackgroundImageFix" result="shape"/>
<feColorMatrix in="SourceAlpha" type="matrix" values="0 0 0 0 0 0 0 0 0 0 0 0 0 0 0 0 0 0 127 0" result="hardAlpha"/>
<feOffset dx="76.8464" dy="76.8464"/>
<feGaussianBlur stdDeviation="19.2116"/>
<feComposite in2="hardAlpha" operator="arithmetic" k2="-1" k3="1"/>
<feColorMatrix type="matrix" values="0 0 0 0 0.913725 0 0 0 0 0.952941 0 0 0 0 0.333333 0 0 0 0.1 0"/>
<feBlend mode="normal" in2="shape" result="effect1_innerShadow_36_2"/>
</filter>
</defs>
</svg>
